inDegrees=yes
name=ik_S53_A11_T01
DataType=double
version=3
OpenSimVersion=4.3-2021-08-27-4bc7ad9
endheader
time	pelvis_tilt	pelvis_list	pelvis_rotation	pelvis_tx	pelvis_ty	pelvis_tz	hip_flexion_r	hip_adduction_r	hip_rotation_r	knee_angle_r	knee_angle_r_beta	ankle_angle_r	subtalar_angle_r	mtp_angle_r	hip_flexion_l	hip_adduction_l	hip_rotation_l	knee_angle_l	knee_angle_l_beta	ankle_angle_l	subtalar_angle_l	mtp_angle_l	lumbar_extension	lumbar_bending	lumbar_rotation	arm_flex_r	arm_add_r	arm_rot_r	elbow_flex_r	pro_sup_r	wrist_flex_r	wrist_dev_r	arm_flex_l	arm_add_l	arm_rot_l	elbow_flex_l	pro_sup_l	wrist_flex_l	wrist_dev_l
17.99999999999971	0.5701824281882825	-1.491022678595338	46.69375270785599	0	0.9399999999999999	0	34.65652545496955	-9.741491337390929	-9.304152801903712	37.99904410017528	0.6632084321585847	0	0	0	34.65652545496955	-9.741491337390929	-9.304152801903712	37.99904410017528	0.6632084321585847	0	0	0	0.01771790215666566	-1.746036897263523	11.80717555154185	85.64295307296615	-6.43557426875727	36.27453427595302	43.72092989571202	52.7777073764639	0	0	5.656017265823265	-4.726046353916608	-6.013670811356921	6.104977793521177	107.7686287103306	0	0
18.0199999999997	0.5634605989464142	-1.486350699799042	46.6342287479533	0	0.9399999999999999	0	34.66012113467128	-9.741798309065837	-9.304683535888131	38.00322048694343	0.6632813238585257	0	0	0	34.66012113467128	-9.741798309065837	-9.304683535888131	38.00322048694343	0.6632813238585257	0	0	0	0.01684330196495003	-1.738184177187837	11.82924942057616	85.08988882068043	-6.547993137356653	35.90991620287539	44.18614473073797	53.00818847640892	0	0	5.610335140767262	-4.72138709231452	-6.012856373967145	6.062950019130826	107.7925863052804	0	0
18.0399999999997	0.521248827827489	-1.487578045366226	46.53082350882397	0	0.9399999999999999	0	34.66375975461072	-9.742108615123527	-9.305220298313083	38.00744833479693	0.6633551137238426	0	0	0	34.66375975461072	-9.742108615123527	-9.305220298313083	38.00744833479693	0.6633551137238426	0	0	0	-0.01314666556424093	-1.707690716310677	11.81845644776037	84.48323111871711	-6.588392933889949	35.49366420472496	44.82563678670871	53.16620721044768	0	0	5.652835403462061	-4.658159615442158	-6.134801818149263	6.017955726109665	107.8890732170181	0	0
18.0599999999997	0.4728740809236978	-1.500504985944817	46.42001974379102	0	0.9399999999999999	0	34.66788208420967	-9.742460286568276	-9.305828639910345	38.01223329941183	0.6634386271109639	0	0	0	34.66788208420967	-9.742460286568276	-9.305828639910345	38.01223329941183	0.6634386271109639	0	0	0	-0.05574998340635968	-1.680824487412496	11.81755599537125	83.8077995554368	-6.623754673269232	34.98125373971527	45.6214321335946	53.45285472538689	0	0	5.693255341442548	-4.581262281394154	-6.194368600806023	5.987232645114931	107.9707613368222	0	0
18.0799999999997	0.4689912014982138	-1.501530343311119	46.36945793405061	0	0.9399999999999999	0	34.67238452141098	-9.742843642487877	-9.306492342536815	38.01746449078684	0.6635299286242597	0	0	0	34.67238452141098	-9.742843642487877	-9.306492342536815	38.01746449078684	0.6635299286242597	0	0	0	-0.05797259762761724	-1.679343222186447	11.86903901931806	82.99173972933079	-6.80893659914651	34.27079430777486	46.48612825659573	53.90745776302317	0	0	5.696651942293307	-4.564754752895599	-6.190386698469985	5.936483407597643	108.0861100778863	0	0
18.0999999999997	0.4114933161539751	-1.514061695212234	46.27134143505447	0	0.9399999999999999	0	34.67494226042882	-9.743059995205606	-9.306867827227313	38.02045131080765	0.6635820584677874	0	0	0	34.67494226042882	-9.743059995205606	-9.306867827227313	38.02045131080765	0.6635820584677874	0	0	0	-0.10761640832622	-1.64549885892162	11.82878635327565	83.027300186232	-6.637296581862113	34.42392127291897	46.60730767550749	53.66564671115137	0	0	5.692563854295766	-4.488255857954455	-6.230879877811456	5.990627053229569	108.0729704161465	0	0
18.1199999999997	0.2946026178342969	-1.551370040374585	45.970394530132	0	0.9399999999999999	0	34.67906824491245	-9.743411346906598	-9.3074762687259	38.02523788724333	0.6636655999864883	0	0	0	34.67906824491245	-9.743411346906598	-9.3074762687259	38.02523788724333	0.6636655999864883	0	0	0	-0.2129318284150388	-1.587400043633415	11.89352950401962	81.53115660670312	-7.006799940512984	32.96536653534194	48.22791127224952	54.92365992283893	0	0	5.813384520067999	-4.344137048968309	-6.333209836577321	6.00537818569325	108.1042335322047	0	0
18.1399999999997	0.1769232708741596	-1.577353262975898	45.74999927962297	0	0.9399999999999999	0	34.6811637577022	-9.743587785527282	-9.307783052460556	38.0276919120796	0.663708430799807	0	0	0	34.6811637577022	-9.743587785527282	-9.307783052460556	38.0276919120796	0.663708430799807	0	0	0	-0.315434115614324	-1.518376389149765	11.80145401048974	81.66108717143106	-6.667195464387227	33.2371112634625	48.2957956754848	54.68817309697565	0	0	5.925782464761584	-4.186945129977717	-6.514442105020565	6.050007200771924	108.0208329700808	0	0
18.1599999999997	0.1131411931140263	-1.587712706607972	45.49487747099674	0	0.9399999999999999	0	34.6861139034165	-9.744008951186798	-9.30851279515055	38.03343222940681	0.6638086182372762	0	0	0	34.6861139034165	-9.744008951186798	-9.30851279515055	38.03343222940681	0.6638086182372762	0	0	0	-0.3642302174797229	-1.486108292073803	11.94398633110425	79.73334513686657	-7.272165417181446	31.69122245063003	50.09663647205415	55.80054544421381	0	0	5.977682056452041	-4.113067567241599	-6.539654322855043	6.051872096460751	108.0772182175679	0	0
18.1799999999997	0.1199370361081493	-1.58530778620551	45.39709900227006	0	0.9399999999999999	0	34.69022465297066	-9.744357747047392	-9.309117814971385	38.03820707907285	0.6638919550852362	0	0	0	34.69022465297066	-9.744357747047392	-9.309117814971385	38.03820707907285	0.6638919550852362	0	0	0	-0.3556633021680701	-1.491265320546362	12.04841045468215	78.52514567405481	-7.635073491435679	30.91239727188766	51.02302214880161	56.09732036963521	0	0	5.947777475985833	-4.127767680445286	-6.45828770359419	6.051538759107058	108.1035016903965	0	0
18.1999999999997	0.08527417553396099	-1.585095957482349	45.21981394882568	0	0.9399999999999999	0	34.69425635731884	-9.744699669279125	-9.309711112892069	38.04288836013686	0.6639736588530144	0	0	0	34.69425635731884	-9.744699669279125	-9.309711112892069	38.04288836013686	0.6639736588530144	0	0	0	-0.3776655508952605	-1.46898970729158	12.14750255243129	77.35855553168496	-8.026066820386768	30.00103766410128	52.14289555946221	56.99776917696825	0	0	5.979215598086506	-4.081885955007972	-6.458619880963101	6.055197263999748	108.1142195835225	0	0
18.2199999999997	-0.02156877505725897	-1.596828041314065	44.9114945297251	0	0.9399999999999999	0	34.69745291740847	-9.744970545463186	-9.310181325537629	38.04660031590493	0.6640384447028558	0	0	0	34.69745291740847	-9.744970545463186	-9.310181325537629	38.04660031590493	0.6640384447028558	0	0	0	-0.4618331419113767	-1.399935598918169	12.11425088397026	76.29212535316421	-8.180316464052881	29.36708656525452	53.02736018334052	57.38087989686532	0	0	6.066016600619839	-3.951556449833042	-6.758059963787632	6.06351366368282	108.1227315757583	0	0
